# xmcd CD database file generated by Grip 3.2.0
# 
# Track frame offsets:
#       150
#       26710
#       44967
#       61622
#       81625
#       101480
#       114900
#       127932
#       148035
#       169500
#       199482
#       218737
#       233400
#       251285
#       262530
# 
# Disc length: 3798 seconds
# 
# Revision: 1
# Processed by: cddbd v1.5.1PL0 Copyright (c) Steve Scherf et al.
# Submitted via: Grip 3.2.0
# 
DISCID=c70ed40f
DTITLE=Abi Wallenstein and Joja Wendt  - Good Morning Blues
DYEAR=1995
DGENRE=Blues
TTITLE0=Can't be satisfied
TTITLE1=Rocking Shoes
TTITLE2=Good morning Blues
TTITLE3=The thrill is gone
TTITLE4=Mojo Boogie
TTITLE5=Same old Blues
TTITLE6=Kiss
TTITLE7=Sunny land blow
TTITLE8=Killing floor
TTITLE9=Alabama
TTITLE10=Keep your hands off her
TTITLE11=Kansas City
TTITLE12=Shake your Boogie
TTITLE13=Boogie man
TTITLE14=Got my mojo working
EXTD=
EXTT0=
EXTT1=
EXTT2=
EXTT3=
EXTT4=
EXTT5=
EXTT6=
EXTT7=
EXTT8=
EXTT9=
EXTT10=
EXTT11=
EXTT12=
EXTT13=
EXTT14=
PLAYORDER=
